<?xml version="1.0" standalone="no"?>
<!DOCTYPE svg PUBLIC "-//W3C//DTD SVG 20010904//EN"
 "http://www.w3.org/TR/2001/REC-SVG-20010904/DTD/svg10.dtd">
<svg version="1.0" xmlns="http://www.w3.org/2000/svg"
 width="993.000000pt" height="691.000000pt" viewBox="0 0 993.000000 691.000000"
 preserveAspectRatio="xMidYMid meet">

<g transform="translate(0.000000,691.000000) scale(0.100000,-0.100000)"
fill="#000000" stroke="none">
<path d="M3621 5130 c-27 -6 -102 -76 -348 -322 -173 -172 -323 -330 -334
-350 -18 -36 -19 -65 -19 -774 0 -436 3 -741 9 -747 5 -5 15 -7 22 -5 8 2 249
240 537 529 579 582 553 549 490 619 -17 19 -104 108 -192 198 l-160 162 635
0 c533 0 638 -2 655 -14 18 -14 19 -34 22 -650 1 -350 -1 -636 -5 -636 -4 0
-96 88 -203 195 -146 145 -202 195 -221 195 -19 0 -189 -165 -796 -774 -545
-546 -771 -780 -767 -791 5 -13 71 -15 553 -17 657 -3 640 -4 664 21 18 18 19
38 21 316 l1 297 24 19 c22 18 42 19 305 19 228 0 286 -3 302 -14 18 -14 19
-31 22 -319 3 -288 4 -306 22 -322 19 -17 58 -18 607 -16 324 1 593 1 599 1
47 -1 -11 62 -532 582 -356 356 -554 560 -554 573 0 12 114 134 310 330 206
207 314 322 325 347 21 52 22 621 1 671 -8 18 -156 173 -332 349 -267 265
-326 318 -359 327 -47 13 -1250 14 -1304 1z"/>
</g>
</svg>
